<svg width="24" height="24" viewBox="0 0 24 24" fill="none" xmlns="http://www.w3.org/2000/svg">
<path d="M23.5 12C23.5 5.64873 18.3513 0.5 12 0.5C5.64873 0.5 0.5 5.64873 0.5 12C0.5 18.3513 5.64873 23.5 12 23.5C18.3513 23.5 23.5 18.3513 23.5 12Z" fill="black" stroke="white"/>
<path d="M10.4357 18H13.5717V9.02396H10.4357V18ZM12.0197 8.19196C13.1237 8.19196 13.8437 7.48796 13.8437 6.59196C13.8437 5.67996 13.1237 4.95996 12.0197 4.95996C10.8997 4.95996 10.1797 5.67996 10.1797 6.59196C10.1797 7.48796 10.8997 8.19196 12.0197 8.19196Z" fill="white"/>
</svg>
